<svg width="344" height="227" viewBox="0 0 344 227" fill="none" xmlns="http://www.w3.org/2000/svg">
<path d="M36.224 13.24C36.992 13.24 37.648 13.512 38.192 14.056C38.736 14.568 38.992 15.192 38.96 15.928C38.704 23.288 36.304 28.92 31.76 32.824C27.248 36.728 20.304 39.032 10.928 39.736C10.16 39.768 9.472 39.544 8.864 39.064C8.288 38.584 7.92 37.96 7.76 37.192L7.28 34.408C7.152 33.704 7.312 33.08 7.76 32.536C8.208 31.96 8.8 31.64 9.536 31.576C14.944 31.16 19.152 30.168 22.16 28.6C25.2 27 27.296 24.728 28.448 21.784C28.512 21.528 28.432 21.4 28.208 21.4H3.056C2.32 21.4 1.68 21.128 1.136 20.584C0.592 20.04 0.32 19.4 0.32 18.664V15.976C0.32 15.24 0.592 14.6 1.136 14.056C1.68 13.512 2.32 13.24 3.056 13.24H36.224ZM6.416 0.519998H33.584C34.32 0.519998 34.96 0.791998 35.504 1.336C36.048 1.88 36.32 2.52 36.32 3.256V5.944C36.32 6.68 36.048 7.32 35.504 7.864C34.96 8.408 34.32 8.68 33.584 8.68H6.416C5.68 8.68 5.04 8.408 4.496 7.864C3.952 7.32 3.68 6.68 3.68 5.944V3.256C3.68 2.52 3.952 1.88 4.496 1.336C5.04 0.791998 5.68 0.519998 6.416 0.519998ZM22.0589 57C22.7949 57 23.4349 57.272 23.9789 57.816C24.5229 58.36 24.7949 59 24.7949 59.736V90.264C24.7949 91 24.5229 91.64 23.9789 92.184C23.4349 92.728 22.7949 93 22.0589 93H17.9309C17.1949 93 16.5549 92.728 16.0109 92.184C15.4669 91.64 15.1949 91 15.1949 90.264V59.736C15.1949 59 15.4669 58.36 16.0109 57.816C16.5549 57.272 17.1949 57 17.9309 57H22.0589ZM29.12 131.576C33.12 134.936 36.272 137.656 38.576 139.736C39.12 140.248 39.424 140.888 39.488 141.656C39.552 142.392 39.328 143.048 38.816 143.624L36.368 146.456C35.888 147.032 35.264 147.352 34.496 147.416C33.76 147.448 33.12 147.208 32.576 146.696C29.6 143.976 26.528 141.288 23.36 138.632C23.136 138.44 22.928 138.472 22.736 138.728C18.416 143.24 13.328 147.176 7.472 150.536C6.8 150.92 6.08 151.032 5.312 150.872C4.544 150.712 3.936 150.312 3.488 149.672L1.136 146.408C0.72 145.8 0.576 145.144 0.704 144.44C0.864 143.736 1.264 143.192 1.904 142.808C7.152 139.608 11.552 136.152 15.104 132.44C15.296 132.28 15.296 132.104 15.104 131.912C11.872 129.384 8.784 127.048 5.84 124.904C5.232 124.456 4.88 123.88 4.784 123.176C4.688 122.44 4.88 121.784 5.36 121.208L7.664 118.472C8.144 117.864 8.752 117.512 9.488 117.416C10.256 117.32 10.96 117.496 11.6 117.944C14.608 120.12 17.664 122.424 20.768 124.856C20.832 124.92 20.928 124.952 21.056 124.952C21.184 124.92 21.264 124.856 21.296 124.76C23.568 121.336 25.456 117.624 26.96 113.624C27.216 112.92 27.696 112.376 28.4 111.992C29.104 111.576 29.824 111.448 30.56 111.608L34.544 112.472C35.28 112.632 35.84 113.016 36.224 113.624C36.608 114.232 36.688 114.888 36.464 115.592C34.768 120.968 32.288 126.088 29.024 130.952C28.832 131.176 28.864 131.384 29.12 131.576ZM4.064 177.304C3.392 176.984 2.944 176.488 2.72 175.816C2.496 175.112 2.56 174.44 2.912 173.8L4.64 170.44C4.992 169.768 5.536 169.304 6.272 169.048C7.008 168.792 7.728 168.824 8.432 169.144C11.888 170.712 15.296 172.344 18.656 174.04C19.328 174.36 19.76 174.872 19.952 175.576C20.144 176.28 20.064 176.952 19.712 177.592L17.84 181.048C17.488 181.72 16.944 182.168 16.208 182.392C15.472 182.616 14.768 182.552 14.096 182.2C10.352 180.312 7.008 178.68 4.064 177.304ZM38.816 174.184C39.552 174.344 40.128 174.744 40.544 175.384C40.96 176.024 41.088 176.712 40.928 177.448C39.008 185.992 35.264 192.616 29.696 197.32C24.128 202.024 16.464 204.968 6.704 206.152C5.936 206.248 5.248 206.056 4.64 205.576C4.064 205.128 3.712 204.52 3.584 203.752L3.008 200.248C2.88 199.544 3.04 198.888 3.488 198.28C3.936 197.672 4.528 197.32 5.264 197.224C13.04 196.136 19.024 193.896 23.216 190.504C27.408 187.112 30.4 182.088 32.192 175.432C32.384 174.696 32.8 174.136 33.44 173.752C34.08 173.368 34.752 173.256 35.456 173.416L38.816 174.184Z" fill="#FFC024"/>
<path d="M148.41 153C150.863 153 152.997 153.907 154.81 155.72C156.623 157.533 157.53 159.667 157.53 162.12V211.08C157.53 213.853 156.73 216.36 155.13 218.6C153.637 220.733 151.61 222.12 149.05 222.76C139.13 225.32 128.623 226.6 117.53 226.6C98.8633 226.6 84.0367 221.373 73.05 210.92C62.17 200.36 56.73 185.587 56.73 166.6C56.73 147.613 62.01 132.893 72.57 122.44C83.13 111.88 98.1167 106.6 117.53 106.6C125.423 106.6 133.637 107.293 142.17 108.68C144.73 109.107 146.863 110.387 148.57 112.52C150.277 114.653 151.13 117.053 151.13 119.72V127.56C151.13 129.8 150.223 131.613 148.41 133C146.703 134.387 144.73 134.867 142.49 134.44C135.023 132.733 128.037 131.88 121.53 131.88C110.437 131.88 102.277 134.707 97.05 140.36C91.8233 145.907 89.21 154.653 89.21 166.6C89.21 178.653 91.7167 187.453 96.73 193C101.743 198.547 109.21 201.32 119.13 201.32C121.157 201.32 123.343 201.053 125.69 200.52C126.65 200.307 127.13 199.72 127.13 198.76V178.44C127.13 177.48 126.65 177 125.69 177H115.45C112.997 177 110.863 176.093 109.05 174.28C107.237 172.467 106.33 170.333 106.33 167.88V162.12C106.33 159.667 107.237 157.533 109.05 155.72C110.863 153.907 112.997 153 115.45 153H148.41ZM205.624 166.6C205.624 189 213.357 200.2 228.824 200.2C244.29 200.2 252.024 189 252.024 166.6C252.024 144.2 244.29 133 228.824 133C213.357 133 205.624 144.2 205.624 166.6ZM187.864 122.6C197.89 111.933 211.544 106.6 228.824 106.6C246.104 106.6 259.757 111.933 269.784 122.6C279.81 133.267 284.824 147.933 284.824 166.6C284.824 185.267 279.81 199.933 269.784 210.6C259.757 221.267 246.104 226.6 228.824 226.6C211.544 226.6 197.89 221.267 187.864 210.6C177.837 199.933 172.824 185.267 172.824 166.6C172.824 147.933 177.837 133.267 187.864 122.6ZM334.721 108.2C337.175 108.2 339.255 109.107 340.961 110.92C342.775 112.733 343.575 114.867 343.361 117.32L339.521 177.48C339.415 180.04 338.401 182.227 336.481 184.04C334.668 185.747 332.481 186.6 329.921 186.6H319.361C316.801 186.6 314.615 185.747 312.801 184.04C310.988 182.227 309.975 180.04 309.761 177.48L305.921 117.32C305.815 114.867 306.615 112.733 308.321 110.92C310.028 109.107 312.108 108.2 314.561 108.2H334.721ZM331.521 199.4C333.975 199.4 336.108 200.307 337.921 202.12C339.735 203.933 340.641 206.067 340.641 208.52V215.88C340.641 218.333 339.735 220.467 337.921 222.28C336.108 224.093 333.975 225 331.521 225H317.761C315.308 225 313.175 224.093 311.361 222.28C309.548 220.467 308.641 218.333 308.641 215.88V208.52C308.641 206.067 309.548 203.933 311.361 202.12C313.175 200.307 315.308 199.4 317.761 199.4H331.521Z" fill="#FAFAED"/>
</svg>
